<?xml version="1.0" ?>
<!DOCTYPE svg  PUBLIC '-//W3C//DTD SVG 1.1//EN'  'http://www.w3.org/Graphics/SVG/1.1/DTD/svg11.dtd'>
<!-- Uploaded to: SVG Repo, www.svgrepo.com, Generator: SVG Repo Mixer Tools -->
<svg fill="#000000" width="800px" height="800px" viewBox="0 0 100 100" version="1.1" xml:space="preserve" xmlns="http://www.w3.org/2000/svg" xmlns:xlink="http://www.w3.org/1999/xlink">
<g id="Grid"/>
<g id="_x31_"/>
<g id="_x32_"/>
<g id="_x33_"/>
<g id="_x34_"/>
<g id="_x35_"/>
<g id="_x36_"/>
<g id="_x37_"/>
<g id="_x38_"/>
<g id="_x39_"/>
<g id="_x31_0"/>
<g id="_x31_1"/>
<g id="_x31_2"/>
<g id="_x31_3"/>
<g id="_x31_4"/>
<g id="_x31_5"/>
<g id="_x31_6"/>
<g id="_x31_7"/>
<g id="_x31_8">
<path d="M59.8,83.9H26.1c-5.5,0-10-4.5-10-10V26.1c0-5.5,4.5-10,10-10h47.8c5.5,0,10,4.5,10,10v47.8c0,5.2-3.9,9.4-9,9.9   c-0.5,0.1-1-0.2-1.4-0.6c-0.3-0.4-0.4-1-0.2-1.5c0.9-2.1,0.6-4.5-0.7-6.4l-6.7-9.1L55.5,74l5.5,7.5c0.3,0.5,0.4,1.1,0.1,1.6   C60.9,83.6,60.4,83.9,59.8,83.9z M26.1,19.1c-3.9,0-7,3.1-7,7v47.8c0,3.9,3.1,7,7,7h30.8l-4.7-6.3c-0.5-0.7-0.3-1.6,0.3-2.1   L65.3,63c0.7-0.5,1.6-0.3,2.1,0.3L75,73.6c1.4,1.9,2,4.3,1.8,6.6c2.4-1.1,4.1-3.5,4.1-6.4V26.1c0-3.9-3.1-7-7-7H26.1z M43.7,66.9   c-6.4,0-12.6-3-16.6-8.3c-6.7-9.1-4.8-21.9,4.3-28.6c4.4-3.2,9.8-4.6,15.2-3.8c5.4,0.8,10.2,3.7,13.4,8.1   c5.7,7.7,5.3,18.2-0.9,25.5c-1,1.2-2.2,2.3-3.4,3.2c-1.6,1.2-3.4,2.1-5.2,2.8C48.3,66.5,46,66.9,43.7,66.9z M43.6,28.9   c-3.7,0-7.3,1.2-10.3,3.4c-7.8,5.7-9.4,16.7-3.7,24.5c4.5,6.2,12.8,8.7,20,6.1c1.6-0.6,3.1-1.4,4.5-2.4c1.1-0.8,2-1.7,2.9-2.7   c5.3-6.2,5.7-15.1,0.8-21.7l0,0c-2.8-3.8-6.8-6.2-11.5-6.9C45.3,29,44.5,28.9,43.6,28.9z M56.3,72.6c-0.5,0-0.9-0.2-1.2-0.6l-5.2-7   c-0.3-0.4-0.4-0.8-0.2-1.3c0.1-0.4,0.4-0.8,0.8-1c1.2-0.6,2.4-1.3,3.5-2.1c0.9-0.6,1.7-1.4,2.4-2.1c0.3-0.3,0.7-0.5,1.2-0.4   c0.4,0,0.8,0.3,1.1,0.6l5.1,6.9c0.5,0.7,0.4,1.6-0.3,2.1l-6.3,4.7C57,72.5,56.6,72.6,56.3,72.6z M53.4,64.6l3.2,4.4l3.9-2.9   l-3.2-4.3c-0.5,0.4-1,0.8-1.5,1.2C55,63.6,54.2,64.1,53.4,64.6z M67.4,88.7c-2.9,0-5.8-1.3-7.6-3.8l-7.6-10.3   c-0.5-0.7-0.3-1.6,0.3-2.1L65.3,63c0.7-0.5,1.6-0.3,2.1,0.3L75,73.6c2,2.7,2.4,6.3,1.1,9.3c-0.6,1.5-1.7,2.9-3.1,3.9   C71.3,88.1,69.4,88.7,67.4,88.7z M55.5,74l6.7,9.1c2.1,2.9,6.2,3.5,9,1.4c0.9-0.7,1.7-1.6,2.1-2.7c0,0,0,0,0,0   c0.9-2.1,0.6-4.5-0.7-6.4l-6.7-9.1L55.5,74z M74.4,31.6v-5.5c0-0.8-0.7-1.5-1.5-1.5s-1.5,0.7-1.5,1.5v5.5c0,0.8,0.7,1.5,1.5,1.5   S74.4,32.5,74.4,31.6z M28.5,75v-5.5c0-0.8-0.7-1.5-1.5-1.5s-1.5,0.7-1.5,1.5V75c0,0.8,0.7,1.5,1.5,1.5S28.5,75.9,28.5,75z    M53.9,41.8c0-0.8-0.7-1.5-1.5-1.5H34.1c-0.8,0-1.5,0.7-1.5,1.5s0.7,1.5,1.5,1.5h18.3C53.2,43.3,53.9,42.6,53.9,41.8z M53.9,52.8   c0-0.8-0.7-1.5-1.5-1.5H34.1c-0.8,0-1.5,0.7-1.5,1.5s0.7,1.5,1.5,1.5h18.3C53.2,54.3,53.9,53.6,53.9,52.8z"/>
</g>
<g id="_x31_9"/>
<g id="_x32_0"/>
<g id="_x32_1"/>
<g id="_x32_2"/>
<g id="_x32_3"/>
<g id="_x32_4"/>
<g id="_x32_5"/>
</svg>