<?xml version="1.0" ?>
<!DOCTYPE svg  PUBLIC '-//W3C//DTD SVG 1.1//EN'  'http://www.w3.org/Graphics/SVG/1.1/DTD/svg11.dtd'>
<!-- Uploaded to: SVG Repo, www.svgrepo.com, Generator: SVG Repo Mixer Tools -->
<svg fill="#000000" width="800px" height="800px" viewBox="0 0 2.33333 2.33333" style="shape-rendering:geometricPrecision; text-rendering:geometricPrecision; image-rendering:optimizeQuality; fill-rule:evenodd; clip-rule:evenodd" xml:space="preserve" xmlns="http://www.w3.org/2000/svg" xmlns:xlink="http://www.w3.org/1999/xlink">
<defs>
<style type="text/css">
   <![CDATA[
    .fil0 {fill:black;fill-rule:nonzero}
   ]]>
  </style>
</defs>
<g id="Layer_x0020_1">
<path class="fil0" d="M0.621634 0.407665l1.09007 0c0.00716929,0 0.0134606,0.00377559 0.0169921,0.00944882l0.287228 0.381969 6.29921e-005 -4.72441e-005c0.00580709,0.00772441 0.00516929,0.0182874 -0.000988189,0.0252559l-0.837122 1.09349 2.3622e-005 4.72441e-005c-0.00857087,0.0111969 -0.0247165,0.00994094 -0.0325276,-0.00106299l-0.827957 -1.09366 -2.3622e-005 1.9685e-005c-0.00588976,-0.00777953 -0.00522047,-0.0184843 0.00109449,-0.0254685l0.287213 -0.381945 0.015937 0.0119528 -0.0159843 -0.0120197c0.0039252,-0.00522047 0.00992126,-0.00797638 0.0159843,-0.00798031zm1.08018 0.04l-1.0703 0 -0.273201 0.363311 0.803795 1.06174 0.812858 -1.0618 -0.273157 -0.363256z"/>
<path class="fil0" d="M1.50114 0.859409c0.00750394,-0.0251811 -0.0307244,-0.036626 -0.0382835,-0.0114094l-0.297917 0.988126 -0.294606 -0.988126c-0.00750394,-0.0251811 -0.0457717,-0.0138228 -0.0382835,0.0114094l0.31048 1.05096c0.0064252,0.0239016 0.0372717,0.0156929 0.0385827,0.00100394l0.320028 -1.05197zm-0.669165 -0.0966339c-0.00740157,0.025189 0.0308465,0.0364646 0.0382835,0.011252l0.0966496 -0.326366 0.399524 0 0.0966457 0.326366c0.00744094,0.0252244 0.0457047,0.0139094 0.0382835,-0.011252l-0.100504 -0.339398c-0.00196063,-0.00898819 -0.0099685,-0.0157165 -0.0195394,-0.0157165l-0.428917 0c-0.00877953,-0.000169291 -0.0169449,0.00549606 -0.0195551,0.0143228l0.0191772 0.00567717 -0.0191417 -0.00562598 -0.100906 0.34074z"/>
<path class="fil0" d="M0.365413 0.748402c-0.0263307,0 -0.0263307,0.04 0,0.04l1.60251 0c0.0263307,0 0.0263307,-0.04 0,-0.04l-1.60251 0z"/>
<path class="fil0" d="M0.365618 0.833705c-0.0263307,0 -0.0263307,0.04 0,0.04l1.60174 0c0.0263307,0 0.0263307,-0.04 0,-0.04l-1.60174 0z"/>
</g>
</svg>