<?xml version="1.0" ?>
<!DOCTYPE svg  PUBLIC '-//W3C//DTD SVG 1.1//EN'  'http://www.w3.org/Graphics/SVG/1.1/DTD/svg11.dtd'>
<!-- Uploaded to: SVG Repo, www.svgrepo.com, Generator: SVG Repo Mixer Tools -->
<svg fill="#000000" width="800px" height="800px" viewBox="0 0 2.33333 2.33333" style="shape-rendering:geometricPrecision; text-rendering:geometricPrecision; image-rendering:optimizeQuality; fill-rule:evenodd; clip-rule:evenodd" xml:space="preserve" xmlns="http://www.w3.org/2000/svg" xmlns:xlink="http://www.w3.org/1999/xlink">
<defs>
<style type="text/css">
   <![CDATA[
    .fil0 {fill:black;fill-rule:nonzero}
   ]]>
  </style>
</defs>
<g id="Layer_x0020_1">
<path class="fil0" d="M1.00178 1.18762c-0.00764567,0.00840551 -0.0204173,0.00889764 -0.0291299,0.000456693l-0.521224 -0.475933 -4.72441e-005 3.93701e-006c-0.00285827,-0.00261024 -0.00478346,-0.00585827 -0.00575984,-0.00933071l-0.131705 -0.362681 -5.11811e-005 1.9685e-005c-0.00572441,-0.0157717 0.00951181,-0.0316417 0.0260551,-0.0254646l0.364146 0.129949 3.93701e-006 -7.87402e-006c0.00360236,0.00128346 0.00660236,0.00349606 0.00883858,0.00627165l0.468504 0.513051 2.75591e-005 -2.3622e-005c0.00731496,0.00800787 0.0068937,0.0203504 -0.000846457,0.0278465l-0.178811 0.195843zm-0.315783 -0.70698l-0.320102 -0.114228 0.116028 0.319512 0.503815 0.460035 0.153898 -0.168539 -0.453638 -0.49678zm0.675858 0.680921l0.164409 0.180043 2.75591e-005 -2.3622e-005c0.00846457,0.00926772 0.00705118,0.0245669 -0.0063622,0.0316417l-0.0842283 0.0506024 -0.060311 0.0996929c-0.00137795,0.00493701 -0.0177165,0.0169291 -0.0315,0.00353937l-0.190657 -0.174091 -4.72441e-005 3.93701e-006c-0.00880315,-0.00803937 -0.00891732,-0.0218543 0.000929134,-0.0303346l0.178748 -0.163217 -2.3622e-005 -2.75591e-005c0.00836614,-0.0076378 0.0211299,-0.00697638 0.0290157,0.00216929zm0.118461 0.188933l-0.135272 -0.148134 -0.148768 0.135843 0.157504 0.143815 0.0479252 -0.0792126 1.1811e-005 7.87402e-006c0.00281496,-0.00457087 0.00388583,-0.00794094 0.00957874,-0.0113386l6.69291e-005 0.000114173 2.3622e-005 -1.1811e-005 -1.5748e-005 -2.75591e-005 0.0689449 -0.0410551zm0.454874 0.300866l-0.0793858 0.0793858c-0.00822835,0.00822835 -0.0215118,0.00792913 -0.0297087,-0.00158268l-0.204972 -0.224472 -0.115752 0.115756 0.225354 0.205772 4.72441e-005 -3.93701e-006c0.00848425,0.00774803 0.00866929,0.0208976 0.000570866,0.0289961l-0.0792992 0.0792953c0.130484,0.107047 0.328634,0.014 0.328634,-0.155713 0,-0.0452362 -0.0151693,-0.0904724 -0.0454882,-0.127433zm-0.0928976 0.0363307l0.0794528 -0.0794528c0.00780709,-0.00780709 0.0204764,-0.00780709 0.0282874,3.93701e-006 0.15172,0.151724 0.0433031,0.411752 -0.170559,0.411752 -0.0617244,0 -0.123457,-0.0235551 -0.170551,-0.0706496 -0.00780709,-0.00780709 -0.00780709,-0.0204764 0,-0.0282835l0.0794528 -0.0794488 -0.224476 -0.204969c-0.00951181,-0.00819685 -0.00981102,-0.0214803 -0.00158268,-0.0297087l0.145953 -0.145925c0.00815354,-0.00744488 0.0208071,-0.00687008 0.028252,0.00128346l-3.93701e-006 4.72441e-005 0.205776 0.22535z"/>
<path class="fil0" d="M1.34017 1.72908l0.395358 -0.395358 -0.0557165 -0.0557165 -0.243693 0.145126 -0.151524 0.25037 0.0555748 0.0555787zm0.0711575 -0.337563l0.259783 -0.154646c0.00783071,-0.0058189 0.0189528,-0.0051811 0.0260551,0.00192126l0.0807874 0.0807874c0.00780709,0.00780709 0.00780709,0.0204764 0,0.0282835l-0.423642 0.423642c-0.00780709,0.00780709 -0.0204764,0.00780709 -0.0282835,0l-0.0805236 -0.0805315c-0.00658661,-0.00633858 -0.00815748,-0.0166063 -0.00322835,-0.0247559l1.9685e-005 1.1811e-005 0.161626 -0.267063c0.00165748,-0.00307874 0.00414567,-0.00576772 0.00740551,-0.00764961z"/>
<path class="fil0" d="M1.40702 1.42317c0.0186181,0.0186181 0.0469016,-0.00966535 0.0282835,-0.0282835l-0.158484 -0.158484c-0.0186181,-0.0186181 -0.0469016,0.00966535 -0.0282835,0.0282835l0.158484 0.158484zm-0.339031 -0.339031l-0.390417 -0.390417 0.0282835 -0.0282835 0.390417 0.390417 -0.0282835 0.0282835z"/>
<path class="fil0" d="M1.96744 0.366417l-0.320106 0.114224 -0.794315 0.869854 0.0689449 0.0410591 -1.5748e-005 2.3622e-005 2.3622e-005 1.1811e-005 6.69291e-005 -0.000110236c0.00530315,0.00315354 0.00668504,0.00636614 0.00923228,0.0108937l5.90551e-005 -3.54331e-005 0.000287402 0.000476378 1.1811e-005 -7.87402e-006 0.0479252 0.0792126 0.871858 -0.796094 0.116028 -0.319508zm-0.338173 0.0782244l0.36415 -0.129945c0.0165433,-0.00617717 0.0317795,0.00969291 0.0260551,0.0254646l-5.11811e-005 -1.9685e-005 -0.131705 0.362677c-0.000976378,0.00347244 -0.00290157,0.00672047 -0.00575984,0.00933071l-4.72441e-005 -3.93701e-006 -0.8965 0.81813c-0.0128189,0.00776772 -0.0261535,-0.00209449 -0.0274646,-0.00679921l-0.0607677 -0.100362 -0.0888543 -0.0532756c-0.00815354,-0.00744882 -0.00872835,-0.0201024 -0.00127953,-0.0282559l2.75591e-005 2.3622e-005 0.813323 -0.890669c0.00224016,-0.00279134 0.00525591,-0.00501969 0.00887008,-0.00630709l3.93701e-006 1.1811e-005zm-1.21768 1.1636l0.0794488 0.0794528 0.205776 -0.22535 -3.93701e-006 -4.72441e-005c0.00774803,-0.00848425 0.0208976,-0.00866929 0.0289961,-0.000570866l0.145213 0.145213c0.00822835,0.00822835 0.00792913,0.0215118 -0.00158268,0.0297087l-0.224476 0.204969 0.0794528 0.0794488c0.00780709,0.00780709 0.00780709,0.0204764 0,0.0282835 -0.151457,0.151457 -0.411752,0.0437992 -0.411752,-0.170551 0,-0.0617205 0.0235512,-0.123461 0.0706457,-0.170555 0.00780709,-0.00780709 0.0204764,-0.00780709 0.0282835,0zm0.065937 0.122508l-0.0793819 -0.0793858c-0.106909,0.130315 -0.0142756,0.32863 0.155713,0.32863 0.0452362,0 0.0904764,-0.0151654 0.127433,-0.0454843l-0.0800118 -0.0800394c-0.00744488,-0.00815354 -0.00687008,-0.0208071 0.00128346,-0.028252l4.72441e-005 3.93701e-006 0.225354 -0.205772 -0.115756 -0.115756 -0.204972 0.224472c-0.00819685,0.00951181 -0.0214803,0.00981102 -0.0297087,0.00158268z"/>
<path class="fil0" d="M0.979016 1.7715l-0.423638 -0.423638c-0.00780709,-0.00780709 -0.00780709,-0.0204764 0,-0.0282835l0.0807874 -0.0807913c0.00710236,-0.00710236 0.0182244,-0.00774016 0.0260551,-0.00192126l0.259744 0.154689 7.48031e-005 -7.48031e-005c0.00322441,0.00192126 0.0057126,0.0046063 0.00737008,0.00768504l0.16163 0.267063 1.9685e-005 -1.1811e-005c0.00492913,0.00814961 0.00335827,0.0184173 -0.00322835,0.0247559l-0.0805315 0.0805276c-0.00780709,0.00780709 -0.0204764,0.00780709 -0.0282835,0zm-0.381213 -0.43778l0.395354 0.395354 0.0555787 -0.0555787 -0.151524 -0.250362 -0.243693 -0.145134 -0.0557165 0.0557205z"/>
<path class="fil0" d="M0.898031 1.39489c-0.0186181,0.0186181 0.00966535,0.0469016 0.0282835,0.0282835l0.729449 -0.729449c0.0186181,-0.0186181 -0.00966535,-0.0469016 -0.0282835,-0.0282835l-0.729449 0.729449z"/>
</g>
</svg>